<svg xmlns="http://www.w3.org/2000/svg" viewBox="0 0 800 1131" width="800" height="1131">
  <rect width="800" height="1131" fill="#ffffff"/>
  <rect x="0" y="0" width="800" height="12" fill="#2f6feb"/>
  <text x="80" y="170" font-family="'Hiragino Sans','Noto Sans JP',sans-serif" font-size="34" font-weight="700" fill="#1b1f24" text-anchor="start">あとがき</text><line x1="80" y1="200" x2="240" y2="200" stroke="#2f6feb" stroke-width="4"/><rect x="80" y="270" width="640" height="10" rx="5" fill="#1b1f24" opacity="0.14"/><rect x="80" y="300" width="600" height="10" rx="5" fill="#1b1f24" opacity="0.14"/><rect x="80" y="330" width="655" height="10" rx="5" fill="#1b1f24" opacity="0.14"/><rect x="80" y="360" width="580" height="10" rx="5" fill="#1b1f24" opacity="0.14"/><rect x="80" y="390" width="630" height="10" rx="5" fill="#1b1f24" opacity="0.14"/><rect x="80" y="420" width="610" height="10" rx="5" fill="#1b1f24" opacity="0.14"/><rect x="80" y="450" width="660" height="10" rx="5" fill="#1b1f24" opacity="0.14"/><rect x="80" y="480" width="545" height="10" rx="5" fill="#1b1f24" opacity="0.14"/><rect x="80" y="510" width="640" height="10" rx="5" fill="#1b1f24" opacity="0.14"/><rect x="80" y="540" width="600" height="10" rx="5" fill="#1b1f24" opacity="0.14"/><rect x="80" y="570" width="655" height="10" rx="5" fill="#1b1f24" opacity="0.14"/><rect x="80" y="600" width="580" height="10" rx="5" fill="#1b1f24" opacity="0.14"/><rect x="80" y="630" width="630" height="10" rx="5" fill="#1b1f24" opacity="0.14"/><rect x="80" y="660" width="610" height="10" rx="5" fill="#1b1f24" opacity="0.14"/>
  <line x1="80" y1="1041" x2="720" y2="1041" stroke="#2f6feb" stroke-opacity="0.3" stroke-width="1"/>
  <text x="400" y="1076" font-family="'Hiragino Sans','Noto Sans JP',sans-serif" font-size="20" font-weight="400" fill="#8b95a1" text-anchor="middle">- 9 -</text>
</svg>
